# xmcd CD database file
#
# Track frame offsets:
#	150
#	10112
#	51072
#	69760
#	104040
#	141237
#	198977
#
# Disc length: 2965 seconds
#
# Revision: 4
# Processed by: cddbd v1.5.2PL0 Copyright (c) Steve Scherf et al.
# Submitted via: CDex 1.83
#
DISCID=5b0b9307
DTITLE=My Dying Bride - As The Flower Withers
DYEAR=1992
DGENRE=Doom Metal
TTITLE0=Silent Dance
TTITLE1=Sear Me
TTITLE2=The Forever People
TTITLE3=The Bitterness And The Bereavement
TTITLE4=Vast Choirs
TTITLE5=The Return Of The Beautiful
TTITLE6=Erotic Literature
EXTD=YEAR: 1992
EXTT0=
EXTT1=
EXTT2=
EXTT3=
EXTT4=
EXTT5=
EXTT6=
PLAYORDER=
